<svg width="22" height="22" viewBox="0 0 22 22" fill="none" xmlns="http://www.w3.org/2000/svg">
<path d="M10.0279 21.5973C10.5649 22.1342 11.4353 22.1342 11.9722 21.5973L21.5973 11.9722C22.1342 11.4352 22.1342 10.5648 21.5973 10.0278L11.9722 0.402734C11.4353 -0.134242 10.5649 -0.134243 10.0279 0.402733C9.49091 0.939709 9.49091 1.81011 10.0279 2.34709L17.3057 9.62499L1.37501 9.62499C0.615613 9.62499 2.05608e-06 10.2406 1.9233e-06 11C1.79052e-06 11.7594 0.615613 12.375 1.37501 12.375L17.3057 12.375L10.0279 19.6529C9.49091 20.1899 9.49091 21.0603 10.0279 21.5973Z" fill="white"/>
</svg>
