<svg width="126" height="36" viewBox="0 0 126 36" fill="none" xmlns="http://www.w3.org/2000/svg">
<path d="M77.8538 33.5112H74.4052V18.1034C74.4052 15.9642 75.2307 15.1584 75.916 14.8431H68.4409C69.1262 15.1584 69.9517 15.9642 69.9517 18.1034V31.8187C69.9517 33.9579 69.1262 34.7636 68.4409 35.0789H82.5372L83.5203 30.2816C82.4496 32.2741 80.2623 33.5112 77.8538 33.5112Z" fill="#10214C"/>
<path d="M122.137 32.1537C121.8 31.7048 120.348 29.3248 119.724 28.3723C119.1 27.4199 117.782 25.9069 116.488 25.4559C119.354 24.7574 121.458 22.4693 121.458 19.6667C121.458 16.4743 119.687 14.8431 115.131 14.8431H105.26C105.948 15.1584 106.771 15.9642 106.771 18.1034V31.8187C106.771 33.9579 105.946 34.7636 105.26 35.0789H112.735C112.05 34.7636 111.225 33.9579 111.225 31.8187V16.1153H112.694C115.472 16.1153 116.747 17.4815 116.747 20.063C116.747 22.8897 115.083 24.9019 112.497 24.9019H112.179V25.1909C112.749 25.3989 113.062 25.8325 113.821 27.1287C115.258 29.581 115.413 29.8349 116.939 32.3814C118.082 34.2885 119.181 35.0789 121.809 35.0789H125.264C124.044 34.3914 123.199 33.5637 122.137 32.1537Z" fill="#10214C"/>
<path d="M95.8213 33.5111H92.3728V25.5959H94.5535C96.4147 25.5959 97.7612 26.117 98.359 27.4943V25.5959V24.9281V24.3238V22.4255C97.759 23.8049 96.4125 24.3238 94.5513 24.3238H92.3706V16.113H95.3264C97.7349 16.113 99.4318 17.6457 100.5 19.6382L100.1 14.5847C99.6158 14.7117 98.7903 14.8409 97.3824 14.8409H86.4062C87.0916 15.1562 87.917 15.9619 87.917 18.1011V31.8164C87.917 33.9556 87.0916 34.7614 86.4062 35.0767H100.503L101.486 30.2794C100.415 32.2719 98.2276 33.5089 95.8191 33.5089L95.8213 33.5111Z" fill="#10214C"/>
<path d="M31.6278 14.4381C25.3394 14.4381 20.2378 18.2654 20.2378 24.9611C20.2378 31.6567 25.3394 35.484 31.6278 35.484C37.9162 35.484 43.0463 31.6851 43.0463 24.9611C43.0463 18.237 37.9162 14.4381 31.6278 14.4381ZM31.6278 34.3301C27.3451 34.3301 24.7833 30.3692 24.7833 24.9589C24.7833 19.5485 27.3319 15.5876 31.6278 15.5876C35.9237 15.5876 38.503 19.5748 38.503 24.9589C38.503 30.343 35.9105 34.3301 31.6278 34.3301Z" fill="#10214C"/>
<path d="M16.8748 32.1537C16.5376 31.7048 15.086 29.3248 14.4619 28.3723C13.8379 27.4199 12.5198 25.9069 11.2258 25.4559C14.0919 24.7574 16.1961 22.4693 16.1961 19.6667C16.1961 16.4743 14.4247 14.8431 9.86827 14.8431H0C0.687517 15.1584 1.51079 15.9642 1.51079 18.1034V31.8187C1.51079 33.9579 0.685327 34.7636 0 35.0789H7.4751C6.78978 34.7636 5.96432 33.9579 5.96432 31.8187V16.1153H7.4335C10.212 16.1153 11.4863 17.4815 11.4863 20.063C11.4863 22.8897 9.82229 24.9019 7.23644 24.9019H6.91896V25.1909C7.48824 25.3989 7.80134 25.8325 8.56112 27.1287C9.99746 29.581 10.1529 29.8349 11.679 32.3814C12.822 34.2885 13.9211 35.0789 16.5486 35.0789H20.0037C18.7841 34.3914 17.9389 33.5637 16.877 32.1537H16.8748Z" fill="#10214C"/>
<path d="M52.146 31.8165V18.1012C52.146 15.962 52.9714 15.1562 53.6567 14.8409H46.1816C46.8692 15.1562 47.6924 15.962 47.6924 18.1012V31.8165C47.6924 33.9557 46.867 34.7614 46.1816 35.0767H53.6567C52.9714 34.7614 52.146 33.9557 52.146 31.8165Z" fill="#10214C"/>
<path d="M63.3942 32.1537C63.0088 31.7048 61.6557 29.8371 60.585 28.3723C59.672 27.1243 57.3401 23.9735 56.6701 23.0714L60.8631 17.7202C62.4834 15.6533 63.2453 15.0927 64.027 14.8431H58.4765C58.864 15.1146 59.1968 15.7343 58.4108 16.9911L53.0552 25.5675C53.4975 26.185 53.7558 26.5572 54.1543 27.1287C54.555 27.7001 56.0286 29.8349 57.8218 32.3814C59.1662 34.2885 60.3464 35.0789 62.9738 35.0789H66.4289C65.148 34.1571 64.5985 33.5637 63.3898 32.1537H63.3942Z" fill="#10214C"/>
<path d="M31.9672 10.7224C35.3764 10.7224 37.5243 9.2795 38.803 7.82127C39.1205 7.45999 38.8709 7.30454 38.4242 7.50159C37.6294 7.84973 36.2741 8.24166 34.8355 7.76215C33.2656 7.23666 32.519 5.68865 32.1928 4.67927C32.022 4.15159 31.9147 4.11656 31.7614 4.60264C31.4505 5.60326 30.7061 7.22352 29.0967 7.75996C27.575 8.26574 26.1431 7.79718 25.3767 7.4381C25.0067 7.26731 24.9191 7.32205 25.1884 7.61545C25.9942 8.50878 28.0939 10.7224 31.9694 10.7224" fill="#10214C"/>
<path d="M41.4192 5.95798C41.6775 5.67553 41.6578 5.23544 41.3754 4.97707C41.0951 4.71651 40.6528 4.73622 40.3945 5.02086C40.1361 5.30331 39.5208 6.4375 39.8011 6.69805C40.0835 6.95642 41.1608 6.24263 41.4192 5.96017" fill="#10214C"/>
<path d="M24.3563 6.6958C24.6388 6.43744 24.0191 5.30325 23.7608 5.01861C23.5024 4.73616 23.0623 4.71646 22.782 4.97482C22.4996 5.23538 22.4799 5.67329 22.7382 5.95574C22.9988 6.23819 24.0739 6.95198 24.3585 6.69361" fill="#10214C"/>
<path d="M31.9801 3.15754C32.4969 3.14659 32.8844 1.43874 32.8735 0.922011C32.8603 0.4009 32.429 -0.0107343 31.9101 0.0002134C31.3911 0.00897158 30.9795 0.440312 30.9904 0.959234C31.0014 1.47816 31.459 3.17067 31.9801 3.15535" fill="#10214C"/>
</svg>
